<?xml version="1.0" encoding="iso-8859-1"?>
<!-- Generator: Adobe Illustrator 16.0.0, SVG Export Plug-In . SVG Version: 6.00 Build 0)  -->
<!DOCTYPE svg>

<svg class="header__logo" version="1.1" id="Layer_1" xmlns="http://www.w3.org/2000/svg" xmlns:xlink="http://www.w3.org/1999/xlink" x="0px" y="0px" width="100px" height="100px" viewBox="0 0 100 100" enable-background="new 0 0 100 100" xml:space="preserve">
<path class="letter-wypas" fill="#DE8D26" d="M34.698,43.322l-0.716,6.676h-2.703l-1.396-12.529h1.916l1.056,9.881l0.949-9.881h1.897l0.984,9.953
l1.021-9.953h1.719l-1.396,12.529h-2.613L34.698,43.322z"></path>
<path class="letter-wypas" fill="#DE8D26" d="M43.148,45.846l-2.488-8.377h2.059l1.503,5.71l1.503-5.71h1.88l-2.489,8.377v4.152h-1.969V45.846z"></path>
<path class="letter-wypas" fill="#DE8D26" d="M52.188,37.469c1.988,0,2.936,1.074,2.936,3.097v1.63c0,2.021-0.947,3.096-2.936,3.096h-0.93v4.707h-1.97
V37.469H52.188z M51.258,39.26v4.242h0.93c0.627,0,0.967-0.27,0.967-1.182v-1.881c0-0.912-0.34-1.18-0.967-1.18H51.258z"></path>
<path class="letter-wypas" fill="#DE8D26" d="M63.074,49.998h-1.988l-0.34-2.271h-2.418l-0.34,2.271h-1.807l2.004-12.529h2.883L63.074,49.998z
M58.58,46.024h1.896l-0.949-6.337L58.58,46.024z"></path>
<path class="letter-wypas" fill="#DE8D26" d="M67.529,37.326c1.934,0,2.9,1.127,2.9,3.149v0.394h-1.861v-0.518c0-0.914-0.359-1.236-0.984-1.236
c-0.627,0-0.984,0.322-0.984,1.236c0,0.858,0.43,1.484,1.002,2.058c0.287,0.304,0.59,0.591,0.932,0.876
c0.645,0.592,1.252,1.271,1.629,2.15c0.197,0.447,0.285,0.965,0.285,1.557c0,2.021-1.002,3.15-2.936,3.15
c-1.932,0-2.936-1.129-2.936-3.15v-0.771h1.861v0.896c0,0.912,0.395,1.217,1.02,1.217c0.629,0,1.021-0.305,1.021-1.217
c0-0.859-0.43-1.485-1.002-2.076c-0.287-0.287-0.59-0.573-0.914-0.877c-0.662-0.572-1.27-1.254-1.646-2.131
c-0.197-0.447-0.285-0.967-0.285-1.558C64.631,38.453,65.598,37.326,67.529,37.326z"></path>
<path class="letter-burger" d="M32.773,52.262c2.059,0,2.917,0.947,2.917,2.881v0.449c0,1.289-0.393,2.111-1.271,2.523
c1.074,0.412,1.468,1.342,1.468,2.686v1.02c0,1.934-1.002,2.973-2.99,2.973h-3.097V52.262H32.773z M31.771,54.051v3.312h0.77
c0.733,0,1.181-0.322,1.181-1.324V55.34c0-0.912-0.304-1.289-1.002-1.289H31.771z M31.771,59.154v3.848h1.127
c0.663,0,1.021-0.305,1.021-1.234v-1.094c0-1.162-0.358-1.52-1.271-1.52H31.771z"></path>
<path class="letter-burger" d="M38.86,52.262v9.666c0,0.914,0.394,1.219,1.021,1.219s1.021-0.305,1.021-1.219v-9.666h1.862v9.541
c0,2.021-1.003,3.15-2.936,3.15c-1.934,0-2.936-1.129-2.936-3.15v-9.541H38.86z"></path>
<path class="letter-burger" d="M48.133,64.793c-0.018-0.09-0.054-0.162-0.072-0.234c-0.054-0.143-0.089-0.34-0.089-0.68
c-0.018-0.16-0.018-0.375-0.018-0.627v-1.969c0-1.164-0.376-1.594-1.289-1.594h-0.68v5.104h-1.969V52.262h2.971
c2.059,0,2.918,0.947,2.918,2.881v0.986c0,1.289-0.43,2.129-1.289,2.541c1.002,0.412,1.307,1.359,1.307,2.666v1.934
c0,0.627,0.018,1.039,0.215,1.523H48.133z M45.985,54.051v3.85h0.77c0.734,0,1.181-0.322,1.181-1.324V55.34
c0-0.912-0.304-1.289-1.002-1.289H45.985z"></path>
<path class="letter-burger" d="M54.076,57.811h2.758v3.975c0,2.021-1.002,3.15-2.936,3.15s-2.937-1.129-2.937-3.15V55.27
c0-2.023,1.003-3.152,2.937-3.152s2.936,1.129,2.936,3.152v1.217h-1.861v-1.344c0-0.912-0.395-1.234-1.021-1.234
s-1.02,0.322-1.02,1.234v6.768c0,0.912,0.393,1.217,1.02,1.217s1.021-0.305,1.021-1.217v-2.309h-0.896V57.811z"></path>
<path class="letter-burger" d="M59.984,57.541h2.703v1.791h-2.703v3.67h3.4v1.791h-5.369V52.262h5.369v1.789h-3.4V57.541z"></path>
<path class="letter-burger" d="M68.631,64.793c-0.02-0.09-0.055-0.162-0.072-0.234c-0.055-0.143-0.09-0.34-0.09-0.68
c-0.018-0.16-0.018-0.375-0.018-0.627v-1.969c0-1.164-0.375-1.594-1.289-1.594h-0.68v5.104h-1.969V52.262h2.971
c2.059,0,2.918,0.947,2.918,2.881v0.986c0,1.289-0.43,2.129-1.289,2.541c1.004,0.412,1.307,1.359,1.307,2.666v1.934
c0,0.627,0.018,1.039,0.215,1.523H68.631z M66.482,54.051v3.85h0.77c0.734,0,1.182-0.322,1.182-1.324V55.34
c0-0.912-0.305-1.289-1.002-1.289H66.482z"></path>
<path d="M70.742,34.342c-0.004,0-0.008,0-0.012,0l0,0L29.257,34.34c-0.525,0-1.02-0.234-1.352-0.641
c-0.331-0.405-0.464-0.938-0.36-1.451c2.141-10.636,11.583-18.354,22.448-18.354c10.798,0,20.187,7.62,22.407,18.149
c0.057,0.174,0.09,0.359,0.09,0.552C72.49,33.561,71.707,34.342,70.742,34.342z M31.514,30.847l36.961,0.003
c-2.545-7.916-10-13.463-18.481-13.463C41.513,17.387,34.058,22.934,31.514,30.847z"></path>
<path d="M49.993,81.438c-20.969,0-22.483-4.502-22.483-11.914c0-0.965,0.782-1.748,1.747-1.748H70.73
c0.463,0,0.906,0.186,1.234,0.512c0.328,0.328,0.512,0.771,0.512,1.234C72.477,76.91,71.391,81.438,49.993,81.438z M31.03,71.27
c0.084,1.945,0.43,3.162,1.816,4.123c2.47,1.717,8.078,2.551,17.147,2.551c9.11,0,14.722-0.811,17.159-2.48
c1.396-0.957,1.73-2.15,1.809-4.193H31.03z"></path>
<path d="M49.999,95C25.187,95,5,74.812,5,49.998C5,25.186,25.187,5,49.999,5C74.812,5,95,25.186,95,49.998
C95,74.812,74.812,95,49.999,95z M49.999,8.109c-23.098,0-41.89,18.792-41.89,41.889c0,23.1,18.792,41.893,41.89,41.893
c23.099,0,41.892-18.793,41.892-41.893C91.891,26.901,73.098,8.109,49.999,8.109z"></path>
<path d="M79.105,68.844c-0.25,0-0.502-0.061-0.738-0.188c-0.756-0.408-1.037-1.352-0.629-2.107
c2.727-5.051,4.168-10.775,4.168-16.551c0-1.318-0.074-2.648-0.221-3.953c-0.096-0.854,0.518-1.624,1.371-1.721
c0.85-0.096,1.623,0.518,1.721,1.371c0.158,1.421,0.24,2.867,0.24,4.303c0,6.291-1.57,12.523-4.543,18.029
C80.193,68.547,79.658,68.844,79.105,68.844z"></path>
<path d="M20.895,68.842c-0.554,0-1.089-0.295-1.37-0.816c-2.972-5.504-4.542-11.738-4.542-18.027c0-1.438,0.082-2.885,0.242-4.305
c0.096-0.854,0.869-1.468,1.72-1.369c0.853,0.096,1.467,0.865,1.371,1.719c-0.147,1.303-0.222,2.635-0.222,3.955
c0,5.775,1.441,11.498,4.169,16.551c0.408,0.756,0.126,1.699-0.63,2.107C21.397,68.783,21.144,68.842,20.895,68.842z"></path>
<path d="M20.337,27.59c-1.27,3.388-4.771,13.466-4.771,13.466c-0.097,0.271,0.045,0.565,0.315,0.663l3.205,1.139
c0.135,0.049,0.276,0.037,0.397-0.02c0.12-0.057,0.217-0.16,0.265-0.295c0,0,1.421-4.036,1.9-5.38
c0.587-1.649,1.411-6.173-0.842-9.703C20.697,27.287,20.464,27.25,20.337,27.59L20.337,27.59z"></path>
<path d="M18.915,29.459"></path>
<path d="M83.777,42.045c-0.24-0.699-2.504-3.195-1.111-6.09c0.002-0.003,0.006-0.012,0.006-0.012
c0.355-0.672,0.469-1.466,0.264-2.246c-0.018-0.055-0.064-0.19-0.064-0.19l-2.863-6.073l-0.676,0.225l2.584,6.979l-0.809,0.271
l-2.383-7.044l-0.59,0.202l2.395,7.09l-0.666,0.226l-2.398-7.088l-0.65,0.219l2.396,7.088l-0.793,0.271l-2.172-7.166l-0.613,0.203
l1.283,6.252c0,0,0.057,0.229,0.084,0.314c0.314,0.926,1.02,1.609,1.877,1.92c3.051,1.744,2.402,4.801,2.607,5.403"></path>
</svg>