<svg class="logo" xmlns="http://www.w3.org/2000/svg" viewBox="0 0 580 187.08" preserveAspectRatio="xMidYMid meet">
  <rect class="logo__text" y="170.08" width="17" height="17" fill="#fdec0a"></rect>
  <rect class="logo__text" x="281.67" y="170.08" width="17" height="17" fill="#fdec0a"></rect>
  <rect class="logo__text" x="563" y="170.08" width="17" height="17" fill="#fdec0a"></rect>
  <rect class="logo__text" y="85.33" width="17" height="17" fill="#fdec0a"></rect>
  <rect class="logo__text" x="563" y="85.33" width="17" height="17" fill="#fdec0a"></rect>
  <rect class="logo__text" width="17" height="17" fill="#fdec0a"></rect>
  <rect class="logo__text" x="281.67" width="17" height="17" fill="#fdec0a"></rect>
  <rect class="logo__text" x="563" width="17" height="17" fill="#fdec0a"></rect>
  <rect class="logo__border" x="8.5" y="8.5" width="563" height="170.08" fill="none" stroke="#fdec0a" stroke-miterlimit="10" stroke-width="4"></rect>
  <path class="logo__text" d="M84,142.08a18.11,18.11,0,0,1-1-5.95,27.67,27.67,0,0,1-20,7c-13.47-.49-21.48-7.77-21.06-19.22.58-15.95,15.18-17.3,27.29-18.4,10.92-1,15-1.82,15.15-6.78.2-5.55-3.24-8.28-10.69-8.55-7.68-.28-11,2-12.39,8.89l-15.71-.58C47.08,84.9,57,78.29,74.62,78.93c12.28.45,26.47,3.81,25.85,20.82l-1,26.34c-.2,5.55-.53,11.33,1.52,16.61ZM71.87,115.14c-5.82.73-12.34,1.2-12.62,8.65-.19,5.08,3.13,8.27,8.91,8.49,8.74.32,15.06-4.3,15.38-13l.25-6.85C79.82,114.49,76.15,114.59,71.87,115.14Z" transform="translate(-7.25 -14.72)" fill="#fdec0a"></path>
  <path class="logo__text" d="M155,140.89l-1.68-35.54c-.36-7.56-2-13.16-11-12.73-10,.47-12.88,7.83-12.47,16.68l1.54,32.7-16.65.78-2.87-60.92,15.94-.75.4,8.5a24.13,24.13,0,0,1,19.71-11.11c12.87-.61,21.5,6.68,22.16,20.84L172,140.09Z" transform="translate(-7.25 -14.72)" fill="#fdec0a"></path>
  <path class="logo__text" d="M199.13,141.32l-16.77-.56,2-61,16.77.56Zm2.32-69.93-16.77-.56.47-14.18,16.77.56Z" transform="translate(-7.25 -14.72)" fill="#fdec0a"></path>
  <path class="logo__text" d="M291.35,141.09l-.52-36.4c-.1-6.74-1.24-12.51-9.87-12.39s-11.61,6.55-11.49,14.82L270,141.4l-16.78.24-.53-37.11c-.09-6.5-1.47-11.92-9.39-11.8-9.69.14-12.06,7.86-11.94,16.13l.47,33.09-16.78.24-.87-61,16-.23.12,8.39c4.63-6.69,10.61-10.2,19.24-10.32,8-.12,14.23,3.11,17.4,9.8,4.75-6.69,11.2-10.21,19.83-10.33,13.71-.2,20.92,8.33,21.11,21.33l.59,41Z" transform="translate(-7.25 -14.72)" fill="#fdec0a"></path>
  <path class="logo__text" d="M359.07,142.52a18.1,18.1,0,0,1-.87-6,27.68,27.68,0,0,1-20.11,6.64c-13.46-.71-21.35-8.1-20.75-19.55.83-15.93,15.45-17.06,27.57-18,10.93-.85,15-1.58,15.26-6.54.29-5.55-3.11-8.33-10.55-8.72-7.67-.4-11,1.79-12.53,8.69l-15.7-.82c1.66-13.52,11.7-20,29.29-19.06,12.28.64,26.41,4.22,25.52,21.22l-1.38,26.32c-.29,5.55-.71,11.33,1.26,16.64Zm-11.72-27.13c-5.83.64-12.36,1-12.75,8.45-.27,5.08,3,8.32,8.78,8.63,8.73.46,15.13-4.06,15.58-12.79l.36-6.85C355.31,114.86,351.64,114.91,347.35,115.39Z" transform="translate(-7.25 -14.72)" fill="#fdec0a"></path>
  <path class="logo__text" d="M422.27,91.14l-12.4.48,1.1,28.7c.23,5.91.45,8.62,7.65,8.34a38.18,38.18,0,0,0,5.07-.43l.49,12.76c-4.59.53-6.36.72-10.14.86-14.41.55-19-3.05-19.61-17.94l-1.22-31.65-10.16.39-.44-11.34,10.16-.39-.71-18.42,16.65-.64.71,18.42,12.4-.48Z" transform="translate(-7.25 -14.72)" fill="#fdec0a"></path>
  <path class="logo__text" d="M459.1,143.77c-18.79,0-31.2-12.77-31.2-31.91,0-18.91,12.88-32.62,30.61-32.62,18.44,0,30.14,13.47,30.14,34.87v1.65H444.92c.24,10.52,5.32,16.19,14.3,16.19,6.15,0,9.93-2.72,12.41-8.86h16.07C483.92,136.33,472.93,143.77,459.1,143.77Zm-.59-52.36c-7.45,0-12.65,5.2-13.59,13.71h26.71C470.92,97.68,466.9,91.41,458.51,91.41Z" transform="translate(-7.25 -14.72)" fill="#fdec0a"></path>
  <path class="logo__text" d="M534.67,98.88c-.7-6.41-4.52-8.57-11.25-8.83-5.91-.23-9.54,1.88-9.68,5.66-.19,5.08,5,6,14.58,8.37,10.9,2.67,23.54,6,23,19.81-.49,12.75-11.31,20.26-28.67,19.6-15.24-.59-28.11-7.11-27.75-22.71l15.94.61c.31,7.34,4.92,10.36,12.6,10.66,6.85.26,11.22-2.53,11.39-7.13.2-5.2-4.72-6.33-13.39-8.68-10.77-2.9-24.88-5.1-24.32-19.62.46-11.93,10.4-18.29,27.41-17.64,13.94.54,25.78,6.31,25.71,20.5Z" transform="translate(-7.25 -14.72)" fill="#fdec0a"></path>
</svg>